<svg xmlns="http://www.w3.org/2000/svg" width="312.396" height="112.346" viewBox="0 0 312.396 112.346">
  <g id="Group_527" data-name="Group 527" transform="translate(-131.543 -5076.992)">
    <path id="Path_1599" data-name="Path 1599" d="M1864.224,1998.375h-11.263a.59.59,0,0,0-.6.577v9.962a.6.6,0,0,0,.6.584h11.263a.605.605,0,0,0,.61-.584v-9.962A.594.594,0,0,0,1864.224,1998.375Zm0,13.92h-11.263a.591.591,0,0,0-.6.578v9.965a.6.6,0,0,0,.6.581h11.263a.6.6,0,0,0,.61-.581v-9.965A.594.594,0,0,0,1864.224,2012.295Zm15.393,0h-11.264a.593.593,0,0,0-.6.578v9.965a.6.6,0,0,0,.6.581h11.264a.6.6,0,0,0,.609-.581v-9.965A.6.6,0,0,0,1879.617,2012.295Zm0-13.92h-11.264a.592.592,0,0,0-.6.577v9.962a.6.6,0,0,0,.6.584h11.264a.6.6,0,0,0,.609-.584v-9.962A.6.6,0,0,0,1879.617,1998.375Zm-13.324,37.973a32.426,32.426,0,1,0-32.428-32.424A32.463,32.463,0,0,0,1866.293,2036.347Zm0-61.293a28.867,28.867,0,1,1-28.868,28.869A28.9,28.9,0,0,1,1866.293,1975.054Zm16.211,20.522c.664,0,.823-.317.355-.7l-15.674-12.941a1.382,1.382,0,0,0-1.695,0l-15.671,12.941c-.47.385-.311.7.353.7Zm72.563,87.845h7.266v-30.8h-7.266Zm35.957-26.407a15.7,15.7,0,0,0-5.153-3.236,18.064,18.064,0,0,0-6.559-1.157h-12.006v30.8h12.006a17.709,17.709,0,0,0,6.559-1.185,15.9,15.9,0,0,0,5.153-3.255,14.424,14.424,0,0,0,3.344-4.89,15.544,15.544,0,0,0,1.18-6.066v-.087a15.45,15.45,0,0,0-1.18-6.05A14.537,14.537,0,0,0,1991.024,2057.015Zm-3.038,11.09a9.278,9.278,0,0,1-.639,3.511,8.379,8.379,0,0,1-1.764,2.712,7.51,7.51,0,0,1-2.718,1.761,9.906,9.906,0,0,1-3.554.618h-4.743v-17.381h4.743a9.609,9.609,0,0,1,3.547.637,7.891,7.891,0,0,1,2.724,1.785,8.248,8.248,0,0,1,1.762,2.756,9.462,9.462,0,0,1,.641,3.515Zm34.354-8.9v-6.578h-23.207v30.793h23.207v-6.58h-16.025V2071.2h16.025v-6.58h-16.025V2059.2Zm-287.47,16.581c-2.661,2.543-5.284,4.235-9.449,4.235-6.32,0-11.27-5.288-11.27-12.042v-.084c0-6.818,4.846-11.958,11.27-11.958,3.476,0,6.225,1.2,9.193,4.019l.254.241,2.788-2.993-.25-.237a15.948,15.948,0,0,0-11.943-4.852,15.527,15.527,0,0,0-15.52,15.864v.084c0,9,6.617,15.78,15.392,15.78a16.044,16.044,0,0,0,12.249-5.377l.244-.245-2.716-2.665Zm19.2-23.671a15.611,15.611,0,0,0-15.695,15.864v.084a15.35,15.35,0,0,0,15.608,15.78,15.613,15.613,0,0,0,15.693-15.864v-.084A15.351,15.351,0,0,0,1754.066,2052.112Zm11.4,15.949c0,6.817-4.9,11.957-11.4,11.957-6.443,0-11.486-5.288-11.486-12.042v-.084c0-6.818,4.9-11.958,11.4-11.958,6.441,0,11.484,5.288,11.484,12.042Zm28.4,2.358c0,6.162-3.091,9.557-8.7,9.557s-8.827-3.562-8.827-9.771v-17.578h-4.078v17.791c0,8.251,4.911,13.379,12.82,13.379,8.055,0,12.863-5.1,12.863-13.635v-17.535h-4.08Zm29.338,5.6-18.389-23.391h-3.689v30.7h4v-23.95l18.756,23.817.106.133h3.213v-30.7H1823.2Zm6.52-19.568H1839.8v26.876h4.12V2056.45h10.075v-3.822h-24.27Zm51.08,5.525v-.085a8.609,8.609,0,0,0-2.418-6.162c-2-2-5.117-3.1-8.774-3.1h-13.25v30.7h4.078v-11.659h8.053l8.7,11.659h5.028l-9.3-12.376C1877.939,2069.856,1880.8,2066.607,1880.8,2061.975Zm-20.363,5.954V2056.45h8.914c4.59,0,7.325,2.082,7.325,5.568v.084c0,3.541-2.889,5.827-7.368,5.827Zm77.915,4.161-6.448-19.473h-6.138l-6.45,19.473-5.956-19.463h-8.008l-10.018,14.728-9.931-14.728h-4.96l12.789,18.585v12.114h4.12V2071.17l9.787-14.195,8.886,26.459h6.217l6.506-18.864,6.507,18.864h6.217l10.447-30.81h-7.613Z" transform="translate(-1578.401 3105.498)"/>
  </g>
</svg>
