<svg xmlns="http://www.w3.org/2000/svg" width="243.486" height="54.405" viewBox="0 0 243.486 54.405">
  <g id="Group_528" data-name="Group 528" transform="translate(-568.052 -5114.699)">
    <g id="Group_451" data-name="Group 451" transform="translate(568.052 5114.699)">
      <path id="Path_1574" data-name="Path 1574" d="M24.042,74.283V21.351h9.1V66.369h14.3v7.915Z" transform="translate(-24.042 -20.618)"/>
      <path id="Path_1575" data-name="Path 1575" d="M54.534,74.283V21.351h9.083V74.283Z" transform="translate(-24.319 -20.618)"/>
      <path id="Path_1576" data-name="Path 1576" d="M166.338,21.351h8.949L164.214,74.283h-9.091L144.055,21.351H153l6.594,36.735h.151Z" transform="translate(-25.131 -20.618)"/>
      <path id="Path_1577" data-name="Path 1577" d="M180.682,74.283V21.351h24.334v7.921H189.765V42.906h11.73v7.922h-11.73V66.369h16.28v7.915Z" transform="translate(-25.463 -20.618)"/>
      <path id="Path_1578" data-name="Path 1578" d="M230.077,34.4c-.373-4.545-2.792-5.865-4.844-5.865-2.934,0-4.547,1.9-4.547,5.2,0,9.016,18.478,13.343,18.478,27.715,0,8.723-5.868,13.564-14.371,13.564-8.431,0-13.271-6.747-13.639-14.667l8.654-1.247c.373,5.351,2.492,7.994,5.426,7.994,3.154,0,5.281-1.683,5.281-4.845,0-10.478-18.477-13.261-18.477-28.443,0-8.434,5.131-13.2,14.08-13.2,7.4,0,11.8,5.354,12.606,12.832Z" transform="translate(-25.739 -20.611)"/>
      <path id="Path_1579" data-name="Path 1579" d="M251.622,29.272h-8.8V21.351h26.69v7.921h-8.8V74.283h-9.091Z" transform="translate(-26.027 -20.618)"/>
      <g id="Group_444" data-name="Group 444" transform="translate(86.002 0.733)">
        <path id="Path_1580" data-name="Path 1580" d="M124.323,21.351H110.831V36.08l9.091,9.095V28.83h3.157c4.835,0,6.525,1.836,6.525,7.408v23.17c0,5.566-1.691,7.4-6.525,7.4h-3.157V48.367l-9.091,9.09V74.283h13.492c9.382,0,14.368-5.129,14.368-15.975V37.337C138.691,26.485,133.706,21.351,124.323,21.351Z" transform="translate(-110.831 -21.351)"/>
      </g>
      <path id="Path_1581" data-name="Path 1581" d="M73.844,74.283V21.351h8.43L93.339,51.633h.15V21.351H101.7V74.283H93.78L82.193,41.219h-.138V74.283Z" transform="translate(-24.494 -20.618)"/>
    </g>
  </g>
</svg>
