<svg xmlns="http://www.w3.org/2000/svg" width="661" height="61.974" viewBox="0 0 661 61.974">
  <g id="Group_518" data-name="Group 518" transform="translate(-121 -46)">
    <g id="Logo" transform="translate(121 46)">
      <g id="Group_513" data-name="Group 513">
        <g id="Group_395" data-name="Group 395">
          <path id="Path_1484" data-name="Path 1484" d="M347.252-630.851H357.77c.087,4.693,4.519,8.953,11.126,8.953,6.084,0,9.995-3.737,9.995-8.431,0-4.173-3.562-6.606-8.6-8l-7.476-2.088c-12.864-3.3-15.124-11.038-15.124-16.253,0-10.6,9.3-17.819,20.341-17.819,10.951,0,19.556,6.78,19.556,17.992H377.066c0-4.955-3.738-8.518-9.3-8.518-5.127,0-9.387,3.477-9.387,8.171,0,1.651.522,5.128,7.388,6.954l7.128,2.086c9.387,2.607,16.6,7.475,16.6,17.037,0,10.951-9.128,18.252-20.861,18.252C355.857-612.511,347.252-620.682,347.252-630.851Z" transform="translate(-347.252 674.485)" fill="#1a1818"/>
          <path id="Path_1485" data-name="Path 1485" d="M398.7-643.454c0-16.949,13.3-31.03,30.422-31.03,17.037,0,30.422,14.081,30.422,31.03s-13.385,30.944-30.422,30.944C412-612.511,398.7-626.505,398.7-643.454Zm50.24,0c0-11.474-8.431-21.121-19.9-21.121-11.386,0-19.645,9.648-19.645,21.121s8.259,21.036,19.645,21.036C440.509-622.419,448.94-631.981,448.94-643.454Z" transform="translate(-347.943 674.485)" fill="#1a1818"/>
          <path id="Path_1486" data-name="Path 1486" d="M472.173-634.4v-39.028h10.6v38.593c0,8.519,5.649,12.256,11.995,12.256,6.259,0,11.908-3.737,11.908-12.256v-38.593h10.6V-634.4c0,13.733-10.518,21.9-22.512,21.9C482.69-612.5,472.173-620.667,472.173-634.4Z" transform="translate(-355.635 674.471)" fill="#1a1818"/>
          <path id="Path_1487" data-name="Path 1487" d="M572.523-673.428v9.474H555.4v50.414H544.8v-50.414H527.673v-9.474Z" transform="translate(-359.355 674.471)" fill="#1a1818"/>
          <path id="Path_1488" data-name="Path 1488" d="M618.991-673.428h10.6v59.889h-10.6v-25.033h-24.86v25.033H583.526v-59.889h10.606v25.38h24.86Z" transform="translate(-363.126 674.471)" fill="#1a1818"/>
          <path id="Path_1489" data-name="Path 1489" d="M665.1-643.454c0-16.949,13.56-31.03,30.423-31.03a29.856,29.856,0,0,1,23.817,11.647l-8,6.084a19.222,19.222,0,0,0-15.559-7.822c-11.387,0-19.992,9.648-19.992,21.121s8.43,21.036,19.992,21.036a19.222,19.222,0,0,0,15.559-7.823l8,6.084a29.856,29.856,0,0,1-23.817,11.647C678.662-612.511,665.1-626.505,665.1-643.454Z" transform="translate(-368.824 674.485)" fill="#1a1818"/>
          <path id="Path_1490" data-name="Path 1490" d="M817.443-613.539l-14.776-21.817h-5.389v21.817H786.673v-59.889h23.469c13.386,0,19.036,9.649,19.036,19.209,0,8.6-5.65,17.3-14.778,18.514l15.56,22.165Zm-20.164-50.414v19.644h10.69c7.475,0,10.6-4.259,10.6-9.735s-3.391-9.909-9.214-9.909Z" transform="translate(-376.674 674.471)" fill="#1a1818"/>
          <path id="Path_1491" data-name="Path 1491" d="M881.188-673.428h10.6v59.889h-9.648l-23.9-40.332v40.332h-10.6v-59.889h9.994l23.556,39.984Z" transform="translate(-380.791 674.471)" fill="#1a1818"/>
          <path id="Path_1492" data-name="Path 1492" d="M923.961-623.014h27.121v9.475H913.444v-59.889h36.768v9.474H923.961v16.168h22.948v9.648H923.961Z" transform="translate(-390.292 674.471)" fill="#1a1818"/>
          <path id="Path_1493" data-name="Path 1493" d="M979.9-623.014H1003.2v9.475H969.3v-59.889h10.6Z" transform="translate(-391.042 674.471)" fill="#1a1818"/>
          <path id="Path_1494" data-name="Path 1494" d="M1029.413-623.014h23.294v9.475h-33.9v-59.889h10.606Z" transform="translate(-391.707 674.471)" fill="#1a1818"/>
        </g>
      </g>
      <path id="Path_1495" data-name="Path 1495" d="M752.393-620.67,774.405-658.8H730.381Z" transform="translate(-372.928 674.274)" fill="#b40c28"/>
      <path id="Path_1506" data-name="Path 1506" d="M752.393-620.67,774.405-658.8H730.381Z" transform="translate(-372.928 674.274)" fill="#b40c28"/>
    </g>
  </g>
</svg>
