<svg xmlns="http://www.w3.org/2000/svg" width="366.435" height="135.805" viewBox="0 0 366.435 135.805">
  <g id="Group_522" data-name="Group 522" transform="translate(-218.335 -142.712)">
    <g id="Group_505" data-name="Group 505" transform="translate(-559.812 -38.832)">
      <g id="Group_502" data-name="Group 502" transform="translate(778.147 258.033)">
        <path id="Path_1659" data-name="Path 1659" d="M778.147,292.248c0-16.223,12.979-29.7,29.117-29.7a28.577,28.577,0,0,1,22.8,11.148l-7.654,5.823a18.4,18.4,0,0,0-14.891-7.487c-10.9,0-19.135,9.234-19.135,20.216s8.071,20.133,19.135,20.133a18.4,18.4,0,0,0,14.891-7.487l7.654,5.823a28.579,28.579,0,0,1-22.8,11.148C791.126,321.864,778.147,308.47,778.147,292.248Z" transform="translate(-778.147 -262.548)" fill="#1a1818"/>
        <path id="Path_1660" data-name="Path 1660" d="M929.167,320.925l-14.142-20.882h-5.158v20.882H899.718V263.6H922.18c12.811,0,18.219,9.236,18.219,18.387,0,8.236-5.408,16.555-14.142,17.72l14.891,21.215Zm-19.3-48.253v18.8H920.1c7.154,0,10.149-4.076,10.149-9.318s-3.244-9.484-8.818-9.484Z" transform="translate(-784.924 -262.607)" fill="#1a1818"/>
        <path id="Path_1661" data-name="Path 1661" d="M992.792,263.6h10.151v57.321h-9.235l-22.878-38.6v38.6h-10.15V263.6h9.567l22.544,38.27Z" transform="translate(-788.322 -262.607)" fill="#1a1818"/>
        <path id="Path_1662" data-name="Path 1662" d="M1036.555,311.857h25.957v9.069h-36.023V263.6h35.192v9.069h-25.125v15.475h21.963v9.234h-21.963Z" transform="translate(-791.99 -262.607)" fill="#1a1818"/>
        <path id="Path_1663" data-name="Path 1663" d="M1092.492,311.857h22.3v9.069h-32.445V263.6h10.15Z" transform="translate(-795.103 -262.607)" fill="#1a1818"/>
        <path id="Path_1664" data-name="Path 1664" d="M1142,311.857h22.3v9.069h-32.446V263.6H1142Z" transform="translate(-797.863 -262.607)" fill="#1a1818"/>
      </g>
      <g id="Group_503" data-name="Group 503" transform="translate(781.092 181.544)">
        <path id="Path_1665" data-name="Path 1665" d="M781.266,223.307h10.067c.083,4.493,4.326,8.569,10.648,8.569,5.823,0,9.566-3.577,9.566-8.07,0-3.993-3.41-6.323-8.236-7.653l-7.154-2c-12.312-3.161-14.476-10.565-14.476-15.557,0-10.15,8.9-17.055,19.468-17.055,10.482,0,18.717,6.49,18.717,17.221H809.8c0-4.743-3.578-8.154-8.9-8.154-4.908,0-8.984,3.328-8.984,7.82,0,1.581.5,4.908,7.071,6.656l6.822,2c8.984,2.5,15.89,7.155,15.89,16.306,0,10.481-8.736,17.471-19.967,17.471C789.5,240.861,781.266,233.041,781.266,223.307Z" transform="translate(-781.266 -181.544)" fill="#1a1818"/>
        <path id="Path_1666" data-name="Path 1666" d="M832.714,211.245c0-16.223,12.728-29.7,29.117-29.7,16.305,0,29.118,13.477,29.118,29.7a29.313,29.313,0,0,1-29.118,29.617C845.442,240.861,832.714,227.466,832.714,211.245Zm48.085,0c0-10.982-8.07-20.217-19.051-20.217-10.9,0-18.8,9.235-18.8,20.217s7.9,20.133,18.8,20.133C872.73,231.377,880.8,222.225,880.8,211.245Z" transform="translate(-784.134 -181.544)" fill="#1a1818"/>
        <path id="Path_1667" data-name="Path 1667" d="M906.186,219.956V182.6h10.15v36.938c0,8.154,5.407,11.731,11.48,11.731,5.989,0,11.4-3.577,11.4-11.731V182.6h10.15v37.355c0,13.144-10.067,20.964-21.547,20.964C916.253,240.92,906.186,233.1,906.186,219.956Z" transform="translate(-788.229 -181.603)" fill="#1a1818"/>
        <path id="Path_1668" data-name="Path 1668" d="M1004.614,182.6v9.069H988.225v48.252h-10.15V191.67h-16.39V182.6Z" transform="translate(-791.323 -181.603)" fill="#1a1818"/>
        <path id="Path_1669" data-name="Path 1669" d="M1051.483,182.6h10.149v57.32h-10.149v-23.96H1027.69v23.96h-10.15V182.6h10.15v24.293h23.793Z" transform="translate(-794.436 -181.603)" fill="#1a1818"/>
      </g>
      <path id="Path_1670" data-name="Path 1670" d="M864.395,314.728l21.068-36.491H843.326Z" transform="translate(-3.633 -5.39)" fill="#b40c28"/>
    </g>
  </g>
</svg>
