<svg xmlns="http://www.w3.org/2000/svg" width="451.03" height="624.866" viewBox="0 0 451.03 624.866">
  <g id="Group_530" data-name="Group 530" transform="translate(-1103.335 -5651.604)">
    <g id="Footer-Logos" transform="translate(0 208.207)">
      <g id="Group_505" data-name="Group 505" transform="translate(325.188 5487.609)">
        <g id="Group_502" data-name="Group 502" transform="translate(778.147 275.691)">
          <path id="Path_1659" data-name="Path 1659" d="M778.147,299.1c0-19.969,15.975-36.556,35.839-36.556a35.174,35.174,0,0,1,28.058,13.721l-9.421,7.168a22.641,22.641,0,0,0-18.329-9.215c-13.415,0-23.553,11.366-23.553,24.883s9.934,24.78,23.553,24.78a22.644,22.644,0,0,0,18.329-9.215l9.421,7.168a35.177,35.177,0,0,1-28.058,13.722C794.122,335.558,778.147,319.072,778.147,299.1Z" transform="translate(-778.147 -262.548)" fill="#fff"/>
          <path id="Path_1660" data-name="Path 1660" d="M935.966,334.158l-17.407-25.7H912.21v25.7H899.718V263.6h27.647c15.768,0,22.424,11.368,22.424,22.631,0,10.137-6.656,20.377-17.407,21.811l18.329,26.112ZM912.21,274.766v23.143h12.6c8.805,0,12.492-5.017,12.492-11.469s-3.993-11.674-10.854-11.674Z" transform="translate(-758.422 -262.377)" fill="#fff"/>
          <path id="Path_1661" data-name="Path 1661" d="M1000.205,263.6H1012.7v70.554h-11.367l-28.159-47.514v47.514H960.681V263.6h11.776l27.749,47.1Z" transform="translate(-748.531 -262.377)" fill="#fff"/>
          <path id="Path_1662" data-name="Path 1662" d="M1038.879,323h31.949v11.162h-44.34V263.6H1069.8v11.162h-30.925v19.047h27.034v11.366h-27.034Z" transform="translate(-737.854 -262.377)" fill="#fff"/>
          <path id="Path_1663" data-name="Path 1663" d="M1094.835,323h27.442v11.162h-39.935V263.6h12.493Z" transform="translate(-728.791 -262.377)" fill="#fff"/>
          <path id="Path_1664" data-name="Path 1664" d="M1144.345,323h27.443v11.162h-39.936V263.6h12.493Z" transform="translate(-720.758 -262.377)" fill="#fff"/>
        </g>
        <g id="Group_503" data-name="Group 503" transform="translate(781.772 181.544)">
          <path id="Path_1665" data-name="Path 1665" d="M781.266,232.948h12.391c.1,5.53,5.324,10.547,13.107,10.547,7.168,0,11.775-4.4,11.775-9.933,0-4.915-4.2-7.782-10.137-9.42l-8.806-2.458c-15.155-3.891-17.817-13-17.817-19.148,0-12.493,10.958-20.993,23.962-20.993,12.9,0,23.038,7.988,23.038,21.2h-12.39c0-5.838-4.4-10.036-10.957-10.036-6.041,0-11.059,4.1-11.059,9.626,0,1.946.614,6.041,8.7,8.193l8.4,2.457c11.058,3.072,19.558,8.806,19.558,20.071,0,12.9-10.753,21.5-24.577,21.5C791.4,254.555,781.266,244.93,781.266,232.948Z" transform="translate(-781.266 -181.544)" fill="#fff"/>
          <path id="Path_1666" data-name="Path 1666" d="M832.714,218.1c0-19.969,15.666-36.557,35.839-36.557,20.07,0,35.84,16.589,35.84,36.557s-15.771,36.454-35.84,36.454C848.38,254.555,832.714,238.068,832.714,218.1Zm59.186,0c0-13.517-9.933-24.884-23.45-24.884-13.413,0-23.143,11.367-23.143,24.884s9.729,24.78,23.143,24.78C881.968,242.882,891.9,231.617,891.9,218.1Z" transform="translate(-772.919 -181.544)" fill="#fff"/>
          <path id="Path_1667" data-name="Path 1667" d="M906.186,228.58V182.6h12.493v45.465c0,10.036,6.655,14.439,14.131,14.439,7.372,0,14.028-4.4,14.028-14.439V182.6h12.493V228.58c0,16.178-12.391,25.8-26.521,25.8C918.577,254.384,906.186,244.758,906.186,228.58Z" transform="translate(-760.998 -181.372)" fill="#fff"/>
          <path id="Path_1668" data-name="Path 1668" d="M1014.524,182.6v11.162H994.352v59.391H981.859V193.763H961.686V182.6Z" transform="translate(-751.993 -181.372)" fill="#fff"/>
          <path id="Path_1669" data-name="Path 1669" d="M1059.319,182.6h12.492v70.553h-12.492V223.663h-29.286v29.491H1017.54V182.6h12.493v29.9h29.286Z" transform="translate(-742.93 -181.372)" fill="#fff"/>
        </g>
        <path id="Path_1670" data-name="Path 1670" d="M869.258,323.152l25.932-44.916H843.326Z" transform="translate(10.575 15.688)" fill="#b40c28"/>
      </g>
      <path id="Path_1634" data-name="Path 1634" d="M98.253,33.9,4,173.975" transform="translate(1453.5 5892.892)" fill="none" stroke="#fff" stroke-width="5"/>
      <path id="Path_1635" data-name="Path 1635" d="M98.253,33.9,4,173.975" transform="translate(1102.5 5410.892)" fill="none" stroke="#fff" stroke-width="5"/>
    </g>
  </g>
</svg>
